<mxfile host="Electron" agent="Mozilla/5.0 (Windows NT 10.0; Win64; x64) AppleWebKit/537.36 (KHTML, like Gecko) draw.io/26.2.2 Chrome/134.0.6998.178 Electron/35.1.2 Safari/537.36" version="26.2.2">
  <diagram id="C5RBs43oDa-KdzZeNtuy" name="Page-1">
    <mxGraphModel dx="1428" dy="2010" grid="1" gridSize="10" guides="1" tooltips="1" connect="1" arrows="1" fold="1" page="1" pageScale="1" pageWidth="827" pageHeight="1169" math="0" shadow="0">
      <root>
        <mxCell id="WIyWlLk6GJQsqaUBKTNV-0" />
        <mxCell id="WIyWlLk6GJQsqaUBKTNV-1" parent="WIyWlLk6GJQsqaUBKTNV-0" />
        <mxCell id="GoG0LLquyc4yy0I-EByr-63" value="" style="rounded=1;whiteSpace=wrap;html=1;movable=0;resizable=0;rotatable=0;deletable=0;editable=0;locked=1;connectable=0;" parent="WIyWlLk6GJQsqaUBKTNV-1" vertex="1">
          <mxGeometry x="100" y="-20" width="650" height="830" as="geometry" />
        </mxCell>
        <mxCell id="GoG0LLquyc4yy0I-EByr-30" style="edgeStyle=orthogonalEdgeStyle;rounded=0;orthogonalLoop=1;jettySize=auto;html=1;dashed=1;fillColor=#a20025;strokeColor=#6F0000;movable=0;resizable=0;rotatable=0;deletable=0;editable=0;locked=1;connectable=0;" parent="WIyWlLk6GJQsqaUBKTNV-1" source="GoG0LLquyc4yy0I-EByr-3" target="GoG0LLquyc4yy0I-EByr-28" edge="1">
          <mxGeometry relative="1" as="geometry" />
        </mxCell>
        <mxCell id="GoG0LLquyc4yy0I-EByr-31" value="&amp;lt;&amp;lt;include&amp;gt;&amp;gt;" style="edgeLabel;html=1;align=center;verticalAlign=middle;resizable=0;points=[];movable=0;rotatable=0;deletable=0;editable=0;locked=1;connectable=0;" parent="GoG0LLquyc4yy0I-EByr-30" vertex="1" connectable="0">
          <mxGeometry x="-0.14" y="-1" relative="1" as="geometry">
            <mxPoint as="offset" />
          </mxGeometry>
        </mxCell>
        <mxCell id="GoG0LLquyc4yy0I-EByr-61" style="edgeStyle=orthogonalEdgeStyle;rounded=0;orthogonalLoop=1;jettySize=auto;html=1;entryX=0.5;entryY=0;entryDx=0;entryDy=0;dashed=1;fillColor=#008a00;strokeColor=#005700;movable=0;resizable=0;rotatable=0;deletable=0;editable=0;locked=1;connectable=0;" parent="WIyWlLk6GJQsqaUBKTNV-1" source="GoG0LLquyc4yy0I-EByr-3" target="GoG0LLquyc4yy0I-EByr-29" edge="1">
          <mxGeometry relative="1" as="geometry" />
        </mxCell>
        <mxCell id="GoG0LLquyc4yy0I-EByr-62" value="&amp;lt;&amp;lt;include&amp;gt;&amp;gt;" style="edgeLabel;html=1;align=center;verticalAlign=middle;resizable=0;points=[];movable=0;rotatable=0;deletable=0;editable=0;locked=1;connectable=0;" parent="GoG0LLquyc4yy0I-EByr-61" vertex="1" connectable="0">
          <mxGeometry x="0.01" y="-2" relative="1" as="geometry">
            <mxPoint as="offset" />
          </mxGeometry>
        </mxCell>
        <mxCell id="GoG0LLquyc4yy0I-EByr-3" value="Iniciar sesion" style="ellipse;whiteSpace=wrap;html=1;fillColor=#6a00ff;fontColor=#ffffff;strokeColor=#3700CC;movable=0;resizable=0;rotatable=0;deletable=0;editable=0;locked=1;connectable=0;" parent="WIyWlLk6GJQsqaUBKTNV-1" vertex="1">
          <mxGeometry x="240" y="260" width="120" height="80" as="geometry" />
        </mxCell>
        <mxCell id="GoG0LLquyc4yy0I-EByr-4" value="Reservar paquete de turismo" style="ellipse;whiteSpace=wrap;html=1;fillColor=#a20025;fontColor=#ffffff;strokeColor=#6F0000;movable=0;resizable=0;rotatable=0;deletable=0;editable=0;locked=1;connectable=0;" parent="WIyWlLk6GJQsqaUBKTNV-1" vertex="1">
          <mxGeometry x="540" y="-10" width="120" height="80" as="geometry" />
        </mxCell>
        <mxCell id="GoG0LLquyc4yy0I-EByr-15" style="edgeStyle=orthogonalEdgeStyle;rounded=0;orthogonalLoop=1;jettySize=auto;html=1;exitX=0.5;exitY=0.5;exitDx=0;exitDy=0;exitPerimeter=0;dashed=1;strokeColor=#6F0000;align=center;verticalAlign=middle;fontFamily=Helvetica;fontSize=11;fontColor=default;labelBackgroundColor=default;endArrow=classic;fillColor=#a20025;entryX=0;entryY=0.5;entryDx=0;entryDy=0;movable=0;resizable=0;rotatable=0;deletable=0;editable=0;locked=1;connectable=0;" parent="WIyWlLk6GJQsqaUBKTNV-1" source="GoG0LLquyc4yy0I-EByr-6" target="GoG0LLquyc4yy0I-EByr-3" edge="1">
          <mxGeometry relative="1" as="geometry" />
        </mxCell>
        <mxCell id="GoG0LLquyc4yy0I-EByr-22" value="&amp;lt;&amp;lt;include&amp;gt;&amp;gt;" style="edgeLabel;html=1;align=center;verticalAlign=middle;resizable=0;points=[];rounded=0;dashed=1;strokeColor=default;fontFamily=Helvetica;fontSize=11;fontColor=default;labelBackgroundColor=default;movable=0;rotatable=0;deletable=0;editable=0;locked=1;connectable=0;" parent="GoG0LLquyc4yy0I-EByr-15" vertex="1" connectable="0">
          <mxGeometry x="-0.0857" y="3" relative="1" as="geometry">
            <mxPoint as="offset" />
          </mxGeometry>
        </mxCell>
        <mxCell id="GoG0LLquyc4yy0I-EByr-6" value="CLIENTE" style="shape=umlActor;verticalLabelPosition=bottom;verticalAlign=top;html=1;outlineConnect=0;movable=0;resizable=0;rotatable=0;deletable=0;editable=0;locked=1;connectable=0;" parent="WIyWlLk6GJQsqaUBKTNV-1" vertex="1">
          <mxGeometry x="50" y="190" width="30" height="60" as="geometry" />
        </mxCell>
        <mxCell id="GoG0LLquyc4yy0I-EByr-9" value="Mostrar paquetes de turismo" style="ellipse;whiteSpace=wrap;html=1;fillColor=#a20025;fontColor=#ffffff;strokeColor=#6F0000;movable=0;resizable=0;rotatable=0;deletable=0;editable=0;locked=1;connectable=0;" parent="WIyWlLk6GJQsqaUBKTNV-1" vertex="1">
          <mxGeometry x="550" y="90" width="120" height="80" as="geometry" />
        </mxCell>
        <mxCell id="GoG0LLquyc4yy0I-EByr-11" value="Filtrar por Fecha" style="ellipse;whiteSpace=wrap;html=1;fillColor=#a20025;fontColor=#ffffff;strokeColor=#6F0000;movable=0;resizable=0;rotatable=0;deletable=0;editable=0;locked=1;connectable=0;" parent="WIyWlLk6GJQsqaUBKTNV-1" vertex="1">
          <mxGeometry x="540" y="180" width="120" height="80" as="geometry" />
        </mxCell>
        <mxCell id="GoG0LLquyc4yy0I-EByr-12" value="Filtrar por Precio" style="ellipse;whiteSpace=wrap;html=1;fillColor=#a20025;fontColor=#ffffff;strokeColor=#6F0000;movable=0;resizable=0;rotatable=0;deletable=0;editable=0;locked=1;connectable=0;" parent="WIyWlLk6GJQsqaUBKTNV-1" vertex="1">
          <mxGeometry x="520" y="270" width="120" height="80" as="geometry" />
        </mxCell>
        <mxCell id="GoG0LLquyc4yy0I-EByr-13" value="Filtrar por Destino" style="ellipse;whiteSpace=wrap;html=1;fillColor=#a20025;fontColor=#ffffff;strokeColor=#6F0000;movable=0;resizable=0;rotatable=0;deletable=0;editable=0;locked=1;connectable=0;" parent="WIyWlLk6GJQsqaUBKTNV-1" vertex="1">
          <mxGeometry x="470" y="360" width="120" height="75" as="geometry" />
        </mxCell>
        <mxCell id="GoG0LLquyc4yy0I-EByr-17" value="" style="endArrow=classic;html=1;rounded=0;exitX=-0.017;exitY=0.613;exitDx=0;exitDy=0;exitPerimeter=0;entryX=0.5;entryY=0;entryDx=0;entryDy=0;dashed=1;strokeColor=#6F0000;align=center;verticalAlign=middle;fontFamily=Helvetica;fontSize=11;fontColor=default;labelBackgroundColor=default;fillColor=#a20025;movable=0;resizable=0;rotatable=0;deletable=0;editable=0;locked=1;connectable=0;" parent="WIyWlLk6GJQsqaUBKTNV-1" source="GoG0LLquyc4yy0I-EByr-4" target="GoG0LLquyc4yy0I-EByr-28" edge="1">
          <mxGeometry width="50" height="50" relative="1" as="geometry">
            <mxPoint x="390" y="360" as="sourcePoint" />
            <mxPoint x="440" y="310" as="targetPoint" />
          </mxGeometry>
        </mxCell>
        <mxCell id="GoG0LLquyc4yy0I-EByr-23" value="&amp;lt;&amp;lt;extend&amp;gt;&amp;gt;" style="edgeLabel;html=1;align=center;verticalAlign=middle;resizable=0;points=[];rounded=0;dashed=1;strokeColor=default;fontFamily=Helvetica;fontSize=11;fontColor=default;labelBackgroundColor=default;movable=0;rotatable=0;deletable=0;editable=0;locked=1;connectable=0;" parent="GoG0LLquyc4yy0I-EByr-17" vertex="1" connectable="0">
          <mxGeometry x="0.0291" y="-3" relative="1" as="geometry">
            <mxPoint as="offset" />
          </mxGeometry>
        </mxCell>
        <mxCell id="GoG0LLquyc4yy0I-EByr-18" value="" style="endArrow=classic;html=1;rounded=0;entryX=0.917;entryY=0.263;entryDx=0;entryDy=0;exitX=0;exitY=0.5;exitDx=0;exitDy=0;entryPerimeter=0;dashed=1;strokeColor=#6F0000;align=center;verticalAlign=middle;fontFamily=Helvetica;fontSize=11;fontColor=default;labelBackgroundColor=default;fillColor=#a20025;movable=0;resizable=0;rotatable=0;deletable=0;editable=0;locked=1;connectable=0;" parent="WIyWlLk6GJQsqaUBKTNV-1" source="GoG0LLquyc4yy0I-EByr-9" target="GoG0LLquyc4yy0I-EByr-28" edge="1">
          <mxGeometry width="50" height="50" relative="1" as="geometry">
            <mxPoint x="390" y="360" as="sourcePoint" />
            <mxPoint x="440" y="310" as="targetPoint" />
          </mxGeometry>
        </mxCell>
        <mxCell id="GoG0LLquyc4yy0I-EByr-24" value="&amp;lt;&amp;lt;extend&amp;gt;&amp;gt;" style="edgeLabel;html=1;align=center;verticalAlign=middle;resizable=0;points=[];rounded=0;dashed=1;strokeColor=default;fontFamily=Helvetica;fontSize=11;fontColor=default;labelBackgroundColor=default;movable=0;rotatable=0;deletable=0;editable=0;locked=1;connectable=0;" parent="GoG0LLquyc4yy0I-EByr-18" vertex="1" connectable="0">
          <mxGeometry x="-0.0153" y="-2" relative="1" as="geometry">
            <mxPoint as="offset" />
          </mxGeometry>
        </mxCell>
        <mxCell id="GoG0LLquyc4yy0I-EByr-19" value="" style="endArrow=classic;html=1;rounded=0;entryX=1;entryY=0.5;entryDx=0;entryDy=0;exitX=0;exitY=0.413;exitDx=0;exitDy=0;exitPerimeter=0;dashed=1;strokeColor=#6F0000;align=center;verticalAlign=middle;fontFamily=Helvetica;fontSize=11;fontColor=default;labelBackgroundColor=default;fillColor=#a20025;movable=0;resizable=0;rotatable=0;deletable=0;editable=0;locked=1;connectable=0;" parent="WIyWlLk6GJQsqaUBKTNV-1" source="GoG0LLquyc4yy0I-EByr-11" target="GoG0LLquyc4yy0I-EByr-28" edge="1">
          <mxGeometry width="50" height="50" relative="1" as="geometry">
            <mxPoint x="520" y="240" as="sourcePoint" />
            <mxPoint x="382" y="262" as="targetPoint" />
          </mxGeometry>
        </mxCell>
        <mxCell id="GoG0LLquyc4yy0I-EByr-25" value="&amp;lt;&amp;lt;extend&amp;gt;&amp;gt;" style="edgeLabel;html=1;align=center;verticalAlign=middle;resizable=0;points=[];rounded=0;dashed=1;strokeColor=default;fontFamily=Helvetica;fontSize=11;fontColor=default;labelBackgroundColor=default;movable=0;rotatable=0;deletable=0;editable=0;locked=1;connectable=0;" parent="GoG0LLquyc4yy0I-EByr-19" vertex="1" connectable="0">
          <mxGeometry x="-0.0307" y="-1" relative="1" as="geometry">
            <mxPoint as="offset" />
          </mxGeometry>
        </mxCell>
        <mxCell id="GoG0LLquyc4yy0I-EByr-20" value="" style="endArrow=classic;html=1;rounded=0;exitX=0;exitY=0;exitDx=0;exitDy=0;dashed=1;strokeColor=#6F0000;align=center;verticalAlign=middle;fontFamily=Helvetica;fontSize=11;fontColor=default;labelBackgroundColor=default;fillColor=#a20025;movable=0;resizable=0;rotatable=0;deletable=0;editable=0;locked=1;connectable=0;" parent="WIyWlLk6GJQsqaUBKTNV-1" source="GoG0LLquyc4yy0I-EByr-12" target="GoG0LLquyc4yy0I-EByr-28" edge="1">
          <mxGeometry width="50" height="50" relative="1" as="geometry">
            <mxPoint x="530" y="250" as="sourcePoint" />
            <mxPoint x="392" y="272" as="targetPoint" />
          </mxGeometry>
        </mxCell>
        <mxCell id="GoG0LLquyc4yy0I-EByr-26" value="&amp;lt;&amp;lt;extend&amp;gt;&amp;gt;" style="edgeLabel;html=1;align=center;verticalAlign=middle;resizable=0;points=[];rounded=0;dashed=1;strokeColor=default;fontFamily=Helvetica;fontSize=11;fontColor=default;labelBackgroundColor=default;movable=0;rotatable=0;deletable=0;editable=0;locked=1;connectable=0;" parent="GoG0LLquyc4yy0I-EByr-20" vertex="1" connectable="0">
          <mxGeometry x="-0.0258" y="-5" relative="1" as="geometry">
            <mxPoint y="1" as="offset" />
          </mxGeometry>
        </mxCell>
        <mxCell id="GoG0LLquyc4yy0I-EByr-21" value="" style="endArrow=classic;html=1;rounded=0;entryX=0.733;entryY=1;entryDx=0;entryDy=0;exitX=0;exitY=0;exitDx=0;exitDy=0;entryPerimeter=0;dashed=1;strokeColor=#6F0000;align=center;verticalAlign=middle;fontFamily=Helvetica;fontSize=11;fontColor=default;labelBackgroundColor=default;fillColor=#a20025;movable=0;resizable=0;rotatable=0;deletable=0;editable=0;locked=1;connectable=0;" parent="WIyWlLk6GJQsqaUBKTNV-1" source="GoG0LLquyc4yy0I-EByr-13" target="GoG0LLquyc4yy0I-EByr-28" edge="1">
          <mxGeometry width="50" height="50" relative="1" as="geometry">
            <mxPoint x="540" y="260" as="sourcePoint" />
            <mxPoint x="402" y="282" as="targetPoint" />
          </mxGeometry>
        </mxCell>
        <mxCell id="GoG0LLquyc4yy0I-EByr-27" value="&amp;lt;&amp;lt;extend&amp;gt;&amp;gt;" style="edgeLabel;html=1;align=center;verticalAlign=middle;resizable=0;points=[];rounded=0;dashed=1;strokeColor=default;fontFamily=Helvetica;fontSize=11;fontColor=default;labelBackgroundColor=default;movable=0;rotatable=0;deletable=0;editable=0;locked=1;connectable=0;" parent="GoG0LLquyc4yy0I-EByr-21" vertex="1" connectable="0">
          <mxGeometry x="0.2514" y="2" relative="1" as="geometry">
            <mxPoint as="offset" />
          </mxGeometry>
        </mxCell>
        <mxCell id="GoG0LLquyc4yy0I-EByr-28" value="Pagina cliente" style="ellipse;whiteSpace=wrap;html=1;fillColor=#a20025;fontColor=#ffffff;strokeColor=#6F0000;movable=0;resizable=0;rotatable=0;deletable=0;editable=0;locked=1;connectable=0;" parent="WIyWlLk6GJQsqaUBKTNV-1" vertex="1">
          <mxGeometry x="270" y="110" width="120" height="80" as="geometry" />
        </mxCell>
        <mxCell id="GoG0LLquyc4yy0I-EByr-29" value="Pagina Agente de viaje" style="ellipse;whiteSpace=wrap;html=1;fillColor=#008a00;fontColor=#ffffff;strokeColor=#005700;movable=0;resizable=0;rotatable=0;deletable=0;editable=0;locked=1;connectable=0;" parent="WIyWlLk6GJQsqaUBKTNV-1" vertex="1">
          <mxGeometry x="310" y="470" width="120" height="80" as="geometry" />
        </mxCell>
        <mxCell id="GoG0LLquyc4yy0I-EByr-35" style="edgeStyle=orthogonalEdgeStyle;rounded=0;orthogonalLoop=1;jettySize=auto;html=1;entryX=0;entryY=1;entryDx=0;entryDy=0;dashed=1;strokeColor=#005700;align=center;verticalAlign=middle;fontFamily=Helvetica;fontSize=11;fontColor=default;labelBackgroundColor=default;endArrow=classic;fillColor=#008a00;movable=0;resizable=0;rotatable=0;deletable=0;editable=0;locked=1;connectable=0;" parent="WIyWlLk6GJQsqaUBKTNV-1" source="GoG0LLquyc4yy0I-EByr-33" target="GoG0LLquyc4yy0I-EByr-3" edge="1">
          <mxGeometry relative="1" as="geometry" />
        </mxCell>
        <mxCell id="GoG0LLquyc4yy0I-EByr-36" value="&amp;lt;&amp;lt;include&amp;gt;&amp;gt;" style="edgeLabel;html=1;align=center;verticalAlign=middle;resizable=0;points=[];rounded=0;dashed=1;strokeColor=default;fontFamily=Helvetica;fontSize=11;fontColor=default;labelBackgroundColor=default;movable=0;rotatable=0;deletable=0;editable=0;locked=1;connectable=0;" parent="GoG0LLquyc4yy0I-EByr-35" vertex="1" connectable="0">
          <mxGeometry x="-0.3054" y="3" relative="1" as="geometry">
            <mxPoint as="offset" />
          </mxGeometry>
        </mxCell>
        <mxCell id="GoG0LLquyc4yy0I-EByr-33" value="AGENTE" style="shape=umlActor;verticalLabelPosition=bottom;verticalAlign=top;html=1;outlineConnect=0;movable=0;resizable=0;rotatable=0;deletable=0;editable=0;locked=1;connectable=0;" parent="WIyWlLk6GJQsqaUBKTNV-1" vertex="1">
          <mxGeometry x="50" y="400" width="30" height="60" as="geometry" />
        </mxCell>
        <mxCell id="GoG0LLquyc4yy0I-EByr-39" value="Agregar excursiones" style="ellipse;whiteSpace=wrap;html=1;fillColor=#008a00;fontColor=#ffffff;strokeColor=#005700;movable=0;resizable=0;rotatable=0;deletable=0;editable=0;locked=1;connectable=0;" parent="WIyWlLk6GJQsqaUBKTNV-1" vertex="1">
          <mxGeometry x="610" y="481.51" width="120" height="80" as="geometry" />
        </mxCell>
        <mxCell id="GoG0LLquyc4yy0I-EByr-40" value="Cambiar fechas" style="ellipse;whiteSpace=wrap;html=1;fillColor=#008a00;fontColor=#ffffff;strokeColor=#005700;movable=0;resizable=0;rotatable=0;deletable=0;editable=0;locked=1;connectable=0;" parent="WIyWlLk6GJQsqaUBKTNV-1" vertex="1">
          <mxGeometry x="590" y="561.51" width="120" height="80" as="geometry" />
        </mxCell>
        <mxCell id="GoG0LLquyc4yy0I-EByr-41" value="Incluir seguros" style="ellipse;whiteSpace=wrap;html=1;fillColor=#008a00;fontColor=#ffffff;strokeColor=#005700;movable=0;resizable=0;rotatable=0;deletable=0;editable=0;locked=1;connectable=0;" parent="WIyWlLk6GJQsqaUBKTNV-1" vertex="1">
          <mxGeometry x="540" y="641.51" width="120" height="80" as="geometry" />
        </mxCell>
        <mxCell id="GoG0LLquyc4yy0I-EByr-42" value="Mostrar paquetes de turismo" style="ellipse;whiteSpace=wrap;html=1;fillColor=#008a00;fontColor=#ffffff;strokeColor=#005700;movable=0;resizable=0;rotatable=0;deletable=0;editable=0;locked=1;connectable=0;" parent="WIyWlLk6GJQsqaUBKTNV-1" vertex="1">
          <mxGeometry x="620" y="400" width="120" height="80" as="geometry" />
        </mxCell>
        <mxCell id="GoG0LLquyc4yy0I-EByr-43" value="Filtrar por Fecha" style="ellipse;whiteSpace=wrap;html=1;fillColor=#008a00;fontColor=#ffffff;strokeColor=#005700;movable=0;resizable=0;rotatable=0;deletable=0;editable=0;locked=1;connectable=0;" parent="WIyWlLk6GJQsqaUBKTNV-1" vertex="1">
          <mxGeometry x="440" y="690" width="120" height="80" as="geometry" />
        </mxCell>
        <mxCell id="GoG0LLquyc4yy0I-EByr-44" value="Filtrar por Precio" style="ellipse;whiteSpace=wrap;html=1;fillColor=#008a00;fontColor=#ffffff;strokeColor=#005700;movable=0;resizable=0;rotatable=0;deletable=0;editable=0;locked=1;connectable=0;" parent="WIyWlLk6GJQsqaUBKTNV-1" vertex="1">
          <mxGeometry x="320" y="710" width="120" height="80" as="geometry" />
        </mxCell>
        <mxCell id="GoG0LLquyc4yy0I-EByr-45" value="Filtrar por Destino" style="ellipse;whiteSpace=wrap;html=1;fillColor=#008a00;fontColor=#ffffff;strokeColor=#005700;movable=0;resizable=0;rotatable=0;deletable=0;editable=0;locked=1;connectable=0;" parent="WIyWlLk6GJQsqaUBKTNV-1" vertex="1">
          <mxGeometry x="200" y="721.51" width="120" height="75" as="geometry" />
        </mxCell>
        <mxCell id="GoG0LLquyc4yy0I-EByr-47" value="" style="endArrow=classic;html=1;rounded=0;exitX=0;exitY=0.5;exitDx=0;exitDy=0;dashed=1;strokeColor=#005700;align=center;verticalAlign=middle;fontFamily=Helvetica;fontSize=11;fontColor=default;labelBackgroundColor=default;fillColor=#008a00;movable=0;resizable=0;rotatable=0;deletable=0;editable=0;locked=1;connectable=0;" parent="WIyWlLk6GJQsqaUBKTNV-1" source="GoG0LLquyc4yy0I-EByr-42" target="GoG0LLquyc4yy0I-EByr-29" edge="1">
          <mxGeometry width="50" height="50" relative="1" as="geometry">
            <mxPoint x="497" y="381" as="sourcePoint" />
            <mxPoint x="368" y="200" as="targetPoint" />
          </mxGeometry>
        </mxCell>
        <mxCell id="GoG0LLquyc4yy0I-EByr-48" value="&amp;lt;&amp;lt;extend&amp;gt;&amp;gt;" style="edgeLabel;html=1;align=center;verticalAlign=middle;resizable=0;points=[];rounded=0;dashed=1;strokeColor=default;fontFamily=Helvetica;fontSize=11;fontColor=default;labelBackgroundColor=default;movable=0;rotatable=0;deletable=0;editable=0;locked=1;connectable=0;" parent="GoG0LLquyc4yy0I-EByr-47" vertex="1" connectable="0">
          <mxGeometry x="0.2514" y="2" relative="1" as="geometry">
            <mxPoint as="offset" />
          </mxGeometry>
        </mxCell>
        <mxCell id="GoG0LLquyc4yy0I-EByr-49" value="" style="endArrow=classic;html=1;rounded=0;entryX=1;entryY=0.5;entryDx=0;entryDy=0;exitX=0;exitY=0.5;exitDx=0;exitDy=0;dashed=1;strokeColor=#005700;align=center;verticalAlign=middle;fontFamily=Helvetica;fontSize=11;fontColor=default;labelBackgroundColor=default;fillColor=#008a00;movable=0;resizable=0;rotatable=0;deletable=0;editable=0;locked=1;connectable=0;" parent="WIyWlLk6GJQsqaUBKTNV-1" source="GoG0LLquyc4yy0I-EByr-39" target="GoG0LLquyc4yy0I-EByr-29" edge="1">
          <mxGeometry width="50" height="50" relative="1" as="geometry">
            <mxPoint x="507" y="391" as="sourcePoint" />
            <mxPoint x="378" y="210" as="targetPoint" />
          </mxGeometry>
        </mxCell>
        <mxCell id="GoG0LLquyc4yy0I-EByr-50" value="&amp;lt;&amp;lt;extend&amp;gt;&amp;gt;" style="edgeLabel;html=1;align=center;verticalAlign=middle;resizable=0;points=[];rounded=0;dashed=1;strokeColor=default;fontFamily=Helvetica;fontSize=11;fontColor=default;labelBackgroundColor=default;movable=0;rotatable=0;deletable=0;editable=0;locked=1;connectable=0;" parent="GoG0LLquyc4yy0I-EByr-49" vertex="1" connectable="0">
          <mxGeometry x="0.2514" y="2" relative="1" as="geometry">
            <mxPoint as="offset" />
          </mxGeometry>
        </mxCell>
        <mxCell id="GoG0LLquyc4yy0I-EByr-51" value="" style="endArrow=classic;html=1;rounded=0;entryX=0;entryY=1;entryDx=0;entryDy=0;exitX=0.5;exitY=0;exitDx=0;exitDy=0;dashed=1;strokeColor=#005700;align=center;verticalAlign=middle;fontFamily=Helvetica;fontSize=11;fontColor=default;labelBackgroundColor=default;fillColor=#008a00;movable=0;resizable=0;rotatable=0;deletable=0;editable=0;locked=1;connectable=0;" parent="WIyWlLk6GJQsqaUBKTNV-1" source="GoG0LLquyc4yy0I-EByr-45" target="GoG0LLquyc4yy0I-EByr-29" edge="1">
          <mxGeometry width="50" height="50" relative="1" as="geometry">
            <mxPoint x="620" y="532" as="sourcePoint" />
            <mxPoint x="440" y="520" as="targetPoint" />
          </mxGeometry>
        </mxCell>
        <mxCell id="GoG0LLquyc4yy0I-EByr-52" value="&amp;lt;&amp;lt;extend&amp;gt;&amp;gt;" style="edgeLabel;html=1;align=center;verticalAlign=middle;resizable=0;points=[];rounded=0;dashed=1;strokeColor=default;fontFamily=Helvetica;fontSize=11;fontColor=default;labelBackgroundColor=default;movable=0;rotatable=0;deletable=0;editable=0;locked=1;connectable=0;" parent="GoG0LLquyc4yy0I-EByr-51" vertex="1" connectable="0">
          <mxGeometry x="0.2514" y="2" relative="1" as="geometry">
            <mxPoint as="offset" />
          </mxGeometry>
        </mxCell>
        <mxCell id="GoG0LLquyc4yy0I-EByr-53" value="" style="endArrow=classic;html=1;rounded=0;exitX=0;exitY=0.5;exitDx=0;exitDy=0;dashed=1;strokeColor=#005700;align=center;verticalAlign=middle;fontFamily=Helvetica;fontSize=11;fontColor=default;labelBackgroundColor=default;fillColor=#008a00;movable=0;resizable=0;rotatable=0;deletable=0;editable=0;locked=1;connectable=0;" parent="WIyWlLk6GJQsqaUBKTNV-1" source="GoG0LLquyc4yy0I-EByr-40" target="GoG0LLquyc4yy0I-EByr-29" edge="1">
          <mxGeometry width="50" height="50" relative="1" as="geometry">
            <mxPoint x="630" y="542" as="sourcePoint" />
            <mxPoint x="450" y="530" as="targetPoint" />
          </mxGeometry>
        </mxCell>
        <mxCell id="GoG0LLquyc4yy0I-EByr-54" value="&amp;lt;&amp;lt;extend&amp;gt;&amp;gt;" style="edgeLabel;html=1;align=center;verticalAlign=middle;resizable=0;points=[];rounded=0;dashed=1;strokeColor=default;fontFamily=Helvetica;fontSize=11;fontColor=default;labelBackgroundColor=default;movable=0;rotatable=0;deletable=0;editable=0;locked=1;connectable=0;" parent="GoG0LLquyc4yy0I-EByr-53" vertex="1" connectable="0">
          <mxGeometry x="0.2514" y="2" relative="1" as="geometry">
            <mxPoint as="offset" />
          </mxGeometry>
        </mxCell>
        <mxCell id="GoG0LLquyc4yy0I-EByr-55" value="" style="endArrow=classic;html=1;rounded=0;entryX=0.692;entryY=0.925;entryDx=0;entryDy=0;exitX=0;exitY=0;exitDx=0;exitDy=0;dashed=1;strokeColor=#005700;align=center;verticalAlign=middle;fontFamily=Helvetica;fontSize=11;fontColor=default;labelBackgroundColor=default;fillColor=#008a00;entryPerimeter=0;movable=0;resizable=0;rotatable=0;deletable=0;editable=0;locked=1;connectable=0;" parent="WIyWlLk6GJQsqaUBKTNV-1" source="GoG0LLquyc4yy0I-EByr-41" target="GoG0LLquyc4yy0I-EByr-29" edge="1">
          <mxGeometry width="50" height="50" relative="1" as="geometry">
            <mxPoint x="640" y="552" as="sourcePoint" />
            <mxPoint x="460" y="540" as="targetPoint" />
          </mxGeometry>
        </mxCell>
        <mxCell id="GoG0LLquyc4yy0I-EByr-56" value="&amp;lt;&amp;lt;extend&amp;gt;&amp;gt;" style="edgeLabel;html=1;align=center;verticalAlign=middle;resizable=0;points=[];rounded=0;dashed=1;strokeColor=default;fontFamily=Helvetica;fontSize=11;fontColor=default;labelBackgroundColor=default;movable=0;rotatable=0;deletable=0;editable=0;locked=1;connectable=0;" parent="GoG0LLquyc4yy0I-EByr-55" vertex="1" connectable="0">
          <mxGeometry x="0.2514" y="2" relative="1" as="geometry">
            <mxPoint as="offset" />
          </mxGeometry>
        </mxCell>
        <mxCell id="GoG0LLquyc4yy0I-EByr-57" value="" style="endArrow=classic;html=1;rounded=0;entryX=0.433;entryY=1;entryDx=0;entryDy=0;exitX=0.4;exitY=-0.012;exitDx=0;exitDy=0;dashed=1;strokeColor=#005700;align=center;verticalAlign=middle;fontFamily=Helvetica;fontSize=11;fontColor=default;labelBackgroundColor=default;fillColor=#008a00;entryPerimeter=0;exitPerimeter=0;movable=0;resizable=0;rotatable=0;deletable=0;editable=0;locked=1;connectable=0;" parent="WIyWlLk6GJQsqaUBKTNV-1" source="GoG0LLquyc4yy0I-EByr-43" target="GoG0LLquyc4yy0I-EByr-29" edge="1">
          <mxGeometry width="50" height="50" relative="1" as="geometry">
            <mxPoint x="650" y="562" as="sourcePoint" />
            <mxPoint x="470" y="550" as="targetPoint" />
          </mxGeometry>
        </mxCell>
        <mxCell id="GoG0LLquyc4yy0I-EByr-58" value="&amp;lt;&amp;lt;extend&amp;gt;&amp;gt;" style="edgeLabel;html=1;align=center;verticalAlign=middle;resizable=0;points=[];rounded=0;dashed=1;strokeColor=default;fontFamily=Helvetica;fontSize=11;fontColor=default;labelBackgroundColor=default;movable=0;rotatable=0;deletable=0;editable=0;locked=1;connectable=0;" parent="GoG0LLquyc4yy0I-EByr-57" vertex="1" connectable="0">
          <mxGeometry x="0.2514" y="2" relative="1" as="geometry">
            <mxPoint as="offset" />
          </mxGeometry>
        </mxCell>
        <mxCell id="GoG0LLquyc4yy0I-EByr-59" value="" style="endArrow=classic;html=1;rounded=0;entryX=0.258;entryY=0.963;entryDx=0;entryDy=0;exitX=0.5;exitY=0;exitDx=0;exitDy=0;dashed=1;strokeColor=#005700;align=center;verticalAlign=middle;fontFamily=Helvetica;fontSize=11;fontColor=default;labelBackgroundColor=default;fillColor=#008a00;entryPerimeter=0;movable=0;resizable=0;rotatable=0;deletable=0;editable=0;locked=1;connectable=0;" parent="WIyWlLk6GJQsqaUBKTNV-1" source="GoG0LLquyc4yy0I-EByr-44" target="GoG0LLquyc4yy0I-EByr-29" edge="1">
          <mxGeometry width="50" height="50" relative="1" as="geometry">
            <mxPoint x="660" y="572" as="sourcePoint" />
            <mxPoint x="480" y="560" as="targetPoint" />
          </mxGeometry>
        </mxCell>
        <mxCell id="GoG0LLquyc4yy0I-EByr-60" value="&amp;lt;&amp;lt;extend&amp;gt;&amp;gt;" style="edgeLabel;html=1;align=center;verticalAlign=middle;resizable=0;points=[];rounded=0;dashed=1;strokeColor=default;fontFamily=Helvetica;fontSize=11;fontColor=default;labelBackgroundColor=default;movable=0;rotatable=0;deletable=0;editable=0;locked=1;connectable=0;" parent="GoG0LLquyc4yy0I-EByr-59" vertex="1" connectable="0">
          <mxGeometry x="0.2514" y="2" relative="1" as="geometry">
            <mxPoint as="offset" />
          </mxGeometry>
        </mxCell>
      </root>
    </mxGraphModel>
  </diagram>
</mxfile>
